<svg width="200" height="200" viewBox="0 0 200 200" fill="none" xmlns="http://www.w3.org/2000/svg">
<path d="M84.74 171.41L88.42 171.12L92.1 170.67L95.7 169.83L99.33 169.12L102.95 168.38L106.55 167.54L110.08 166.4L113.62 165.35L117.15 164.27L120.64 163.03L124.15 161.88L127.59 160.52L130.95 158.97L134.03 157.05L130.51 156.7L126.98 156.44L123.46 155.99L119.92 155.83L116.38 155.66L112.84 155.54L109.3 155.31L105.77 155.09L102.23 154.95L98.69 154.92L95.15 154.78L91.61 154.56L88.07 154.48L84.52 154.29L80.97 154.21L77.44 153.85L73.89 153.74L70.34 153.75L66.8 153.58L63.25 153.49L59.71 153.23L56.16 153.1L52.61 153.05L49.07 152.8L45.53 152.67L41.98 152.65L38.45 152.39L34.92 152.21L31.54 153.33L28.17 154.39L24.78 155.37L21.35 156.28L17.87 156.92L14.37 157.4L15.24 160.62L16.64 163.86L17.98 167.16L21.53 167.43L25.01 167.94L28.52 168.31L32.02 168.55L35.53 168.82L39.03 169.19L42.54 169.47L46.03 169.89L49.55 170.04L53.06 170.43L56.58 170.55L60.1 170.8L63.62 170.97L67.14 171.16L70.66 171.39L74.18 171.44L77.71 171.65L81.22 171.43L84.74 171.41Z" fill="#C9F0EE"/>
<path d="M112.97 128.33C97.6897 130.36 92.9597 128.33 83.7197 128.33C83.6297 126.68 83.6297 124.65 83.6997 122.34C95.8797 121.18 105.87 119.91 105.87 119.91C105.87 119.91 104.28 100.77 103.76 71.5202C103.58 61.2402 101.12 53.8802 96.1797 49.7402L119.64 48.2602C124.26 49.8002 129.23 52.2402 130.93 63.1402C132.94 76.0402 137.78 105.2 147.35 124.72C148.07 126.18 128.37 126.26 112.97 128.32V128.33Z" fill="#8AD0A7"/>
<path d="M77.9397 106.74C77.9697 98.9702 76.3197 82.7002 76.3197 82.7002C76.3197 82.7002 79.7197 82.4002 82.0097 80.1202C82.0097 68.7202 76.3097 50.4402 67.7197 49.5602C67.7197 49.5602 64.8097 55.8302 58.3497 55.5702C50.1997 55.2402 49.6797 46.0402 49.0497 45.8802C43.1097 47.6902 37.5997 50.5402 33.5397 58.2802C31.2097 62.7202 30.0997 99.4402 30.9597 113.18C53.5397 118.82 59.4697 102.64 77.9397 106.75V106.74Z" fill="#8AD0A7"/>
<path d="M175.41 71.06C162.31 57.91 140.88 56.81 127.73 69.9C114.58 82.99 114.06 104.43 127.15 117.58C140.24 130.73 162.29 131.28 175.41 118.16C185.29 108.28 188.5 84.22 175.41 71.06ZM152.96 104.85L145.17 104.83L145.11 103.15C145.07 99.47 144.94 88.15 144.89 80.02C144.89 79.49 145.37 79.06 145.96 79.06L152.76 79.08C153.34 79.08 153.82 79.51 153.82 80.03C153.86 88.29 153.99 100.41 154.04 103.89C154.04 104.42 153.57 104.85 152.97 104.85H152.96ZM170.31 105.29L163.52 105.27C162.93 105.27 162.46 104.84 162.45 104.32C162.42 96.06 162.28 83.94 162.23 80.46C162.23 79.93 162.7 79.5 163.3 79.5L171.09 79.52L171.15 81.2C171.2 84.88 171.33 96.2 171.37 104.33C171.37 104.86 170.9 105.29 170.3 105.29H170.31Z" fill="#007782"/>
<path d="M181.892 68.7899C188.992 74.3099 192.462 83.6599 192.312 92.5199C192.132 116.87 167.122 133.6 144.512 124.58C109.792 110.08 118.512 59.6999 155.942 57.3799C164.822 56.9299 174.122 60.2499 180.012 66.9699C172.982 61.9799 164.622 59.1199 156.042 59.5099C121.212 61.9199 113.232 108.49 145.482 122.16C157.202 127 171.502 124.15 180.452 115.13C193.622 101.88 192.542 83.2999 181.892 68.7799V68.7899Z" fill="#181818"/>
<path d="M145.812 103.15C144.472 100.4 144.762 97.6299 144.632 94.8699C144.562 91.0399 144.352 84.1198 144.312 80.3498C144.142 78.8298 145.412 77.6799 146.822 77.7699L150.972 77.7598C151.462 77.7598 153.202 77.7398 153.672 77.7598C154.832 77.8098 155.932 78.9298 155.852 80.0998C155.892 87.6498 155.902 95.3399 155.832 102.9L155.822 104.01C155.742 105.19 154.692 105.94 153.642 105.92C150.992 105.89 148.412 105.77 145.872 104.83C147.252 104.31 148.642 104.1 150.022 103.93C151.212 103.79 152.542 103.81 153.702 103.77C153.722 103.75 153.652 103.78 153.642 103.89C153.622 103.3 153.582 101.48 153.572 100.86C153.382 93.9899 153.282 86.9899 153.192 80.1199C153.192 79.9699 153.192 80.1299 153.192 80.1499C153.212 80.2799 153.322 80.4198 153.432 80.4198H153.022C151.712 80.4098 148.162 80.3799 146.802 80.3699C146.542 80.3699 146.692 80.3699 146.682 80.3699C146.702 80.3699 146.732 80.3499 146.762 80.3099C146.812 80.2699 146.872 80.1299 146.862 80.0299V80.3498C146.882 84.0898 146.832 91.0599 146.812 94.8599C146.742 97.6199 147.072 100.38 145.792 103.16L145.812 103.15Z" fill="#181818"/>
<path d="M171.862 81.1999C173.202 83.9499 172.912 86.7199 173.042 89.4799C173.112 93.3099 173.322 100.23 173.362 104C173.532 105.52 172.262 106.67 170.852 106.58L166.702 106.59C166.212 106.59 164.472 106.61 164.002 106.59C162.842 106.54 161.742 105.42 161.822 104.25C161.782 96.6999 161.772 89.0099 161.842 81.4499L161.852 80.3399C161.932 79.1599 162.982 78.4099 164.032 78.4299C166.682 78.4599 169.262 78.5799 171.802 79.5199C170.422 80.0399 169.032 80.2498 167.652 80.4198C166.462 80.5598 165.132 80.5399 163.972 80.5799C163.952 80.5999 164.022 80.5699 164.032 80.4599C164.052 81.0499 164.092 82.8699 164.102 83.4899C164.292 90.3599 164.392 97.3599 164.482 104.23C164.482 104.38 164.482 104.22 164.482 104.2C164.462 104.07 164.352 103.93 164.242 103.93H164.652C165.962 103.94 169.512 103.97 170.872 103.98C171.132 103.98 170.982 103.98 170.992 103.98C170.902 104.01 170.842 104.1 170.812 104.22C170.812 104.25 170.802 104.28 170.812 104.31V103.99C170.792 100.25 170.842 93.2799 170.862 89.4799C170.932 86.7199 170.602 83.9599 171.882 81.1799L171.862 81.1999Z" fill="#181818"/>
<path d="M115.531 33.14C117.521 31.83 119.511 32.14 121.501 32.04L127.471 31.92C130.921 31.83 135.911 31.84 139.421 31.81H140.601C141.121 36.15 141.721 40.48 142.181 44.83L142.851 50.76C143.101 52.73 143.301 54.72 142.571 56.82C141.321 54.98 140.991 53.01 140.721 51.04C139.821 45.31 138.901 39.03 138.111 33.32L139.431 34.48C135.911 34.46 130.951 34.45 127.481 34.37L121.511 34.25C119.521 34.15 117.531 34.46 115.541 33.15L115.531 33.14Z" fill="#181818"/>
<path d="M27.6107 140.42C32.7707 139.11 37.9307 139.42 43.0907 139.32C52.8407 139.21 79.4207 139.12 89.5307 139.09C104.451 139.12 120.971 139.21 135.971 139.34C141.131 139.35 146.291 139.42 151.451 140.42C146.291 141.41 141.131 141.48 135.971 141.5C120.931 141.64 104.481 141.73 89.5307 141.75C79.3407 141.72 52.9607 141.63 43.0907 141.52C37.9307 141.43 32.7707 141.73 27.6107 140.42Z" fill="#181818"/>
<path d="M14.0607 159.8C13.5507 150.55 16.1807 137.27 17.1607 127.99C18.5307 117.39 21.9707 90.69 23.3107 80.47C24.7807 69.81 28.4707 43 29.9907 32.03C35.0507 32.2 45.5507 31.89 50.4907 32.36C52.6607 32.51 54.8307 32.74 57.0007 33.16C54.8307 33.58 52.6607 33.8 50.4907 33.96C46.1707 34.34 35.4507 34.22 30.9607 34.28L32.0707 33.31C30.7107 43.86 27.2507 70.65 25.9407 80.83C24.5607 90.95 20.8507 117.86 19.4107 128.3C17.9207 137.49 16.9807 150.98 14.0607 159.81V159.8Z" fill="#181818"/>
<path d="M109.391 33.14C108.631 34.45 107.881 34.14 107.121 34.24C104.921 34.37 102.511 34.49 100.321 34.48C98.1307 34.48 95.7107 34.34 93.5207 34.22C92.7607 34.22 92.0107 34.14 91.2507 33.14C92.0107 32.14 92.7607 32.07 93.5207 32.06C95.7207 31.94 98.1307 31.8 100.321 31.8C102.511 31.79 104.931 31.91 107.121 32.04C107.881 32.14 108.631 31.83 109.391 33.14Z" fill="#181818"/>
<path d="M82.0096 33.1401C81.2096 34.4501 80.4096 34.1401 79.6096 34.2401C77.2796 34.3701 74.7296 34.4901 72.4096 34.4801C70.0996 34.4801 67.5296 34.3401 65.2096 34.2201C64.4096 34.2201 63.6096 34.1401 62.8096 33.1401C63.6096 32.1401 64.4096 32.0701 65.2096 32.0601C67.5396 31.9401 70.0896 31.8001 72.4096 31.8001C74.7196 31.7901 77.2896 31.9101 79.6096 32.0401C80.4096 32.1401 81.2096 31.8301 82.0096 33.1401Z" fill="#181818"/>
<path d="M107.95 29.9001C108.73 27.5101 111.82 28.5501 113.06 29.8301C114.75 31.2701 115.45 33.6701 113.85 35.5801C111.57 38.4401 108.65 39.4701 109.98 43.3501C107.48 44.3901 104.79 45.0101 102.21 45.6401C101.44 45.7501 100.63 45.7301 99.7096 45.3001C100.74 43.7101 102.24 43.5101 103.81 42.9501C104.97 42.5401 106.93 41.9001 107.97 41.4201L107.27 42.8901C106.68 41.0601 107.3 38.7601 108.52 37.3501C109.64 35.9501 111 34.9801 111.81 34.0101C112.19 33.5101 112.34 33.1901 112.29 32.8601C112.17 32.0401 110.96 30.7201 110.05 30.5701C109.53 30.4701 109.03 30.3501 107.95 29.9001Z" fill="#181818"/>
<path d="M81.1296 30.1101C81.7396 27.6101 84.9996 28.4901 86.3096 29.7401C88.0596 31.0901 88.9596 33.5901 87.3896 35.5401C85.7996 37.8501 82.4896 39.2201 83.1096 42.3601L83.3296 43.4401C82.7396 43.6601 79.6996 44.7801 79.0496 45.0301C77.8096 45.5101 76.7096 45.9401 75.3096 45.3901C75.6596 44.6401 76.1096 44.1901 76.6096 43.8301C77.6096 43.1901 80.3396 42.1001 81.4396 41.5501L80.7696 42.9601C79.4696 38.9201 83.1496 36.3001 85.3096 33.9901C86.1396 32.9401 85.5796 32.3301 84.7896 31.4301C83.5496 30.2101 82.9796 30.9001 81.1496 30.0901L81.1296 30.1101Z" fill="#181818"/>
<path d="M85.1896 44.3101C89.2596 45.1801 93.0096 46.9901 96.7196 48.8101C107.38 55.3701 104.66 72.9901 105.03 83.6801C104.83 95.8001 107.64 107.78 107.13 119.92L107.1 121.29L105.73 121.15C99.1596 120.34 92.7996 121.56 86.3996 123.19C79.5596 125.04 72.3696 124.89 66.9096 119.89C73.3396 122.38 79.2696 122.98 85.8796 121.03C92.3296 119.26 99.2296 117.88 106 118.64L104.6 119.86C105.02 107.75 102.1 95.8201 102.43 83.6901C102.08 73.9301 104.93 56.4901 95.6296 50.6601C92.3396 49.0501 88.2196 46.9301 85.1896 44.3101Z" fill="#181818"/>
<path d="M50.6996 31.1101C50.6496 28.5501 53.6396 27.6301 55.7596 28.1301C56.9496 28.4501 57.8196 29.2101 58.5396 30.0001C60.5596 32.1401 59.5296 34.7601 57.6896 36.3501C56.0896 37.9601 53.9796 39.4301 54.5496 41.8801L54.7496 43.0001C52.8296 43.6301 49.4196 44.9401 47.4896 45.4701C46.7496 45.6101 45.9596 45.6501 45.0596 45.3501C45.9596 43.8101 47.3096 43.3601 48.7796 42.7501L52.8196 41.0601L52.1396 42.4901C51.0496 39.2901 53.5996 36.3201 55.8196 34.4601C56.5896 33.6301 57.2196 33.2001 57.0396 32.3301C56.7796 31.5401 55.8396 30.5701 55.0996 30.3301C53.4696 29.8201 52.6896 31.1701 50.6896 31.1101H50.6996Z" fill="#181818"/>
<path d="M57.1196 43.4101C65.2296 44.0801 73.9396 48.4201 77.2696 56.2301C80.4896 64.1701 82.0596 72.4201 82.7896 80.9101C82.4996 81.0401 76.7596 83.6701 76.2696 83.9001L77.0396 82.5701L78.3696 97.0401C78.4496 98.0001 79.7696 112.67 79.8196 113.24C76.5596 112.39 73.1896 111.78 69.7896 111.4C66.9796 111.09 64.1196 110.91 61.3196 110.94C55.6596 110.93 49.8896 113.1 44.1896 112.15C49.8496 110.71 55.3196 108.87 61.2596 108.75C67.1796 108.63 72.9396 109.18 78.7396 110.44L77.2096 111.76C76.4896 104.55 75.0896 90.0401 74.4096 82.8301L74.3196 81.8901C74.6996 81.7201 80.3196 79.1801 80.8696 78.9401L80.1096 80.2201C79.7996 76.3301 79.1996 72.3701 78.3896 68.5101C76.7096 61.0601 75.0196 52.7901 67.6896 48.9501C64.3396 47.0201 60.5896 45.7201 57.1296 43.4401L57.1196 43.4101Z" fill="#181818"/>
<path d="M156.24 159.8C154.76 158.58 154.88 157.15 154.6 155.76C153.94 151.72 153.22 147.29 152.7 143.25C152.34 140.46 152 137.67 151.73 134.87L151.29 130.67C151.11 129.28 151 127.87 151.8 126.35C152.97 127.61 153.23 129 153.42 130.39L154.09 134.55C154.55 137.32 154.95 140.11 155.34 142.89C155.89 146.92 156.36 151.4 156.77 155.46C156.86 156.87 157.35 158.22 156.24 159.78V159.8Z" fill="#181818"/>
<path d="M30.9596 33.1401C32.8096 38.2801 33.0596 43.5901 33.7096 48.8601C34.8596 58.8201 37.7996 86.0001 38.9096 96.3301C40.4796 111.59 42.1496 128.5 43.6196 143.85C44.1596 149.13 44.6396 154.41 44.1996 159.79C42.6596 154.62 42.0396 149.35 41.4696 144.07C39.7296 128.71 37.8796 111.88 36.2496 96.6001C35.1896 86.1701 32.4596 59.1901 31.5196 49.0801C31.0596 43.7901 30.2096 38.5501 30.9596 33.1301V33.1401Z" fill="#181818"/>
<path d="M111 43.5401C112.61 42.6601 113.75 43.3701 114.99 43.7101C119.33 45.1901 123.8 46.7101 127.32 49.8901C129.77 52.3601 130.82 55.8401 131.44 59.1501C131.7 60.4301 131.83 61.7901 130.92 63.1401C129.84 61.9601 129.59 60.7901 129.33 59.5901C128.69 57.0101 127.72 54.4201 126.05 52.3701C122.87 49.2201 118.37 47.5601 114.25 45.7801C113.09 45.2601 111.83 45.1601 111 43.5401Z" fill="#181818"/>
</svg>
